<svg width="12" height="12" viewBox="0 0 12 12" fill="none" xmlns="http://www.w3.org/2000/svg">
<g clip-path="url(#clip0_5239_375)">
<path d="M1.5 6.54134C1.5 6.50295 1.5 6.48376 1.50105 6.46756C1.51735 6.21697 1.71697 6.01735 1.96756 6.00105C1.98376 6 2.00295 6 2.04134 6H9.95866C9.99705 6 10.0162 6 10.0324 6.00105C10.283 6.01735 10.4827 6.21697 10.4989 6.46756C10.5 6.48376 10.5 6.50295 10.5 6.54134C10.5 6.73918 10.5 6.83809 10.493 6.94883C10.3886 8.59272 8.99148 10.0434 7.35266 10.2093C7.24227 10.2205 7.17788 10.2229 7.04908 10.2278C6.68202 10.2416 6.32466 10.25 6 10.25C5.67534 10.25 5.31798 10.2416 4.95092 10.2278C4.82212 10.2229 4.75773 10.2205 4.64734 10.2093C3.00852 10.0434 1.61136 8.59272 1.50703 6.94883C1.5 6.83809 1.5 6.73918 1.5 6.54134Z" stroke="#1C274C" stroke-width="0.75"/>
<path opacity="0.5" d="M3 10L2.5 11" stroke="#1C274C" stroke-width="0.75" stroke-linecap="round"/>
<path opacity="0.5" d="M9 10L9.5 11" stroke="#1C274C" stroke-width="0.75" stroke-linecap="round"/>
<path d="M1 6H11" stroke="#1C274C" stroke-width="0.75" stroke-linecap="round"/>
<path opacity="0.5" d="M1.5 6.5V2.19258C1.5 1.53394 2.03394 1 2.69258 1C3.18023 1 3.61876 1.29689 3.79987 1.74967L4 2.19258" stroke="#1C274C" stroke-width="0.75" stroke-linecap="round"/>
<path d="M3.98947 2.2236L4.15361 2.56077L3.98947 2.2236ZM3.1811 3.09619L3.52855 3.23729L3.1811 3.09619ZM5.28855 2.18895L5.14122 2.53379L5.28855 2.18895ZM3.17284 4.37081L2.82394 4.50828C2.86115 4.6027 2.93503 4.67801 3.02872 4.71701C3.12241 4.75601 3.2279 4.75538 3.32112 4.71525L3.17284 4.37081ZM6.15322 3.08777L6.3015 3.43221C6.48755 3.35212 6.57637 3.13875 6.50211 2.9503L6.15322 3.08777ZM3.52173 4.23334C3.40088 3.92664 3.39323 3.57049 3.52855 3.23729L2.83366 2.9551C2.6235 3.4726 2.63484 4.02835 2.82394 4.50828L3.52173 4.23334ZM6.00494 2.74333L3.02456 4.02637L3.32112 4.71525L6.3015 3.43221L6.00494 2.74333ZM5.14122 2.53379C5.45201 2.66657 5.68355 2.91873 5.80432 3.22524L6.50211 2.9503C6.31293 2.47017 5.94353 2.06097 5.43587 1.8441L5.14122 2.53379ZM3.52855 3.23729C3.65563 2.92433 3.88418 2.69193 4.15361 2.56077L3.82533 1.88643C3.39173 2.09751 3.03131 2.46838 2.83366 2.9551L3.52855 3.23729ZM4.15361 2.56077C4.4573 2.41292 4.81257 2.39339 5.14122 2.53379L5.43587 1.8441C4.89697 1.61387 4.31441 1.64834 3.82533 1.88643L4.15361 2.56077Z" fill="#1C274C"/>
</g>
<defs>
<clipPath id="clip0_5239_375">
<rect width="12" height="12" fill="white"/>
</clipPath>
</defs>
</svg>
