<svg width="26" height="17" viewBox="0 0 26 17" fill="none" xmlns="http://www.w3.org/2000/svg">
<mask id="mask0_5239_592" style="mask-type:alpha" maskUnits="userSpaceOnUse" x="0" y="0" width="26" height="17">
<path d="M26 0V16.9085H0V0H26Z" fill="white"/>
</mask>
<g mask="url(#mask0_5239_592)">
<path fill-rule="evenodd" clip-rule="evenodd" d="M17.9694 -4.72594e-05C14.1308 1.32624 12.2291 4.40988 11.7821 8.45412C11.3673 12.2074 9.20693 13.9388 7.21783 14.6125L8.03074 16.9085C11.8694 15.5823 13.771 12.4985 14.218 8.45437C14.6328 4.70113 16.7932 2.96966 18.7822 2.29594L17.9694 -4.72594e-05ZM15.9251 8.45412C15.9251 5.50043 18.1804 3.43948 20.9625 3.43948C23.7447 3.43948 26 5.50043 26 8.45412V13.0888H23.4606V8.45412C23.4606 6.80443 22.3422 5.81194 20.9625 5.81194C19.5829 5.81194 18.4645 6.80443 18.4645 8.45412L18.4579 13.0888H15.9251V8.45412ZM5.03739 5.81194C3.65778 5.81194 2.53939 6.80443 2.53939 8.45412C2.53939 10.0578 3.65778 11.1136 5.03739 11.1136C6.41706 11.1136 7.53552 10.0578 7.53552 8.45412C7.53552 6.80443 6.41706 5.81194 5.03739 5.81194ZM10.0748 8.45412C10.0748 11.4079 7.8195 13.4688 5.03739 13.4688C2.25535 13.4688 0 11.4079 0 8.45412C0 5.50043 2.25535 3.43948 5.03739 3.43948C7.8195 3.43948 10.0748 5.50043 10.0748 8.45412Z" fill="white"/>
</g>
</svg>
