<svg width="18" height="18" viewBox="0 0 18 18" fill="none" xmlns="http://www.w3.org/2000/svg">
<path fill-rule="evenodd" clip-rule="evenodd" d="M8.46346 7.33128C8.22114 7.1618 8.06265 6.88066 8.06265 6.5625C8.06265 6.04473 8.48239 5.625 9.00015 5.625C9.51792 5.625 9.93765 6.04473 9.93765 6.5625C9.93765 6.88066 9.77917 7.1618 9.53684 7.33128L11.4046 12.9347C11.4076 12.9428 11.4103 12.9511 11.4129 12.9594L12.5338 16.3221C12.632 16.6168 12.4727 16.9354 12.178 17.0336C11.8833 17.1319 11.5648 16.9726 11.4665 16.6779L10.4697 13.6875H7.53058L6.53379 16.6779C6.43555 16.9726 6.11699 17.1319 5.82227 17.0336C5.52756 16.9354 5.36828 16.6168 5.46652 16.3221L6.58742 12.9594C6.58998 12.9511 6.59273 12.9428 6.59567 12.9347L8.46346 7.33128ZM9.00015 9.27878L10.0947 12.5625H7.90558L9.00015 9.27878Z" fill="#3F5FE0"/>
<path opacity="0.4" d="M9 2.0625C6.41529 2.0625 4.3125 4.1754 4.3125 6.79105C4.3125 8.08374 4.82594 9.25367 5.65851 10.1072C5.87542 10.3296 5.87099 10.6858 5.6486 10.9027C5.42621 11.1196 5.07008 11.1152 4.85316 10.8928C3.82307 9.83669 3.1875 8.38772 3.1875 6.79105C3.1875 3.56236 5.78572 0.9375 9 0.9375C12.2143 0.9375 14.8125 3.56236 14.8125 6.79105C14.8125 8.37424 14.1876 9.81225 13.1728 10.866C12.9573 11.0897 12.6012 11.0964 12.3774 10.8809C12.1537 10.6654 12.147 10.3094 12.3625 10.0856C13.1827 9.23394 13.6875 8.07287 13.6875 6.79105C13.6875 4.1754 11.5847 2.0625 9 2.0625Z" fill="#3F5FE0"/>
<path opacity="0.7" d="M8.99961 4.17883C7.57469 4.17883 6.41211 5.34418 6.41211 6.79096C6.41211 7.50039 6.69148 8.14214 7.14537 8.61283C7.36101 8.83646 7.35454 9.19255 7.13092 9.4082C6.90729 9.62384 6.5512 9.61737 6.33555 9.39375C5.68676 8.72094 5.28711 7.80203 5.28711 6.79096C5.28711 4.73114 6.94513 3.05383 8.99961 3.05383C11.0541 3.05383 12.7121 4.73114 12.7121 6.79096C12.7121 7.78768 12.3237 8.69491 11.6911 9.36503C11.4778 9.59093 11.1218 9.60117 10.8959 9.38791C10.67 9.17464 10.6598 8.81864 10.873 8.59274C11.3156 8.12396 11.5871 7.49039 11.5871 6.79096C11.5871 5.34418 10.4245 4.17883 8.99961 4.17883Z" fill="#3F5FE0"/>
</svg>
