<svg width="34" height="24" viewBox="0 0 34 24" fill="none" xmlns="http://www.w3.org/2000/svg">
<path d="M20.5685 17.5859H14.3652V6.50732H20.5685V17.5859Z" fill="#FF5F00"/>
<path d="M14.7629 12.0456C14.7629 9.79825 15.8218 7.79638 17.4707 6.5063C16.2649 5.56293 14.7431 4.99986 13.0892 4.99986C9.17385 4.99986 6 8.15429 6 12.0456C6 15.9369 9.17385 19.0913 13.0892 19.0913C14.7431 19.0913 16.2649 18.5282 17.4707 17.5849C15.8218 16.2948 14.7629 14.2929 14.7629 12.0456Z" fill="#EB001B"/>
<path d="M28.935 12.0456C28.935 15.9369 25.7611 19.0913 21.8458 19.0913C20.1919 19.0913 18.6701 18.5282 17.4639 17.5849C19.1132 16.2948 20.1721 14.2929 20.1721 12.0456C20.1721 9.79825 19.1132 7.79638 17.4639 6.5063C18.6701 5.56293 20.1919 4.99986 21.8458 4.99986C25.7611 4.99986 28.935 8.15429 28.935 12.0456Z" fill="#F79E1B"/>
</svg>
