<svg width="22" height="14" viewBox="0 0 22 14" fill="none" xmlns="http://www.w3.org/2000/svg">
<g clip-path="url(#clip0_5239_509)">
<path d="M15.9024 8.3257C15.7978 7.64853 15.5054 7.06204 14.9932 6.60088C14.193 5.88037 13.2466 5.66156 12.2001 5.85683C11.4807 5.99112 10.8834 6.34689 10.4245 6.91839C9.9905 7.45887 9.78 8.08348 9.77356 8.77108C9.76482 9.71534 9.771 10.6599 9.771 11.6041C9.771 11.6235 9.77302 11.6429 9.77409 11.6638L11.3195 11.6638C11.3195 11.6317 11.3195 11.6053 11.3195 11.5789C11.3201 10.69 11.3199 9.80094 11.3227 8.91205C11.3231 8.78392 11.3289 8.65432 11.3489 8.52806C11.4215 8.06984 11.6374 7.69815 12.0418 7.45111C12.3322 7.27363 12.6519 7.21037 12.9895 7.23805C13.4869 7.27885 13.8805 7.49873 14.1482 7.92351C14.3328 8.21629 14.3931 8.5425 14.3931 8.88289C14.3933 9.78289 14.3931 10.683 14.3931 11.583L14.3931 11.6674L15.9441 11.6674L15.9441 11.5818C15.9441 10.6774 15.9463 9.77286 15.9424 8.86845C15.9416 8.68735 15.9299 8.50465 15.9022 8.32583L15.9024 8.3257Z" fill="#210250"/>
<path d="M11.3592 5.14544C11.41 5.12578 11.4608 5.10599 11.5138 5.08552C11.5044 5.05516 11.498 5.03189 11.4899 5.00915C11.3689 4.66916 11.0603 3.78843 11.0273 3.68812C11.0249 3.68691 11.0237 3.68638 11.0211 3.68531C10.8929 3.736 10.7637 3.78415 10.6365 3.83725C9.33267 4.38294 8.39261 5.29858 7.81579 6.58404C7.48372 7.3242 7.31217 8.10463 7.22016 8.90565C7.17986 9.25634 7.11202 9.60422 7.00308 9.94006C6.62359 11.1104 5.90101 11.9618 4.80002 12.4583C4.681 12.5119 4.55822 12.5573 4.43154 12.6086C4.59664 13.0722 4.76106 13.534 4.9271 14.0003C4.97398 13.9835 5.01361 13.9699 5.05283 13.9555C6.47743 13.4309 7.51179 12.4889 8.13254 11.1043C8.46381 10.3652 8.63549 9.58576 8.7267 8.78554C8.77157 8.39219 8.8523 8.00258 8.98448 7.62915C9.40777 6.43424 10.1925 5.59872 11.3591 5.14558L11.3592 5.14544Z" fill="#210250"/>
<path d="M5.89104 10.1744C6.17999 9.55954 6.24353 8.91113 6.12102 8.24653C5.96519 7.40124 5.53062 6.73023 4.7973 6.27347C3.94711 5.74383 3.02801 5.64967 2.07881 5.9498C1.19732 6.2284 0.573478 6.80553 0.225422 7.66245C-0.00563014 8.23102 -0.0517063 8.82165 0.0536105 9.42446C0.157047 10.0163 0.409189 10.5366 0.829516 10.9693C1.44651 11.6043 2.21301 11.8886 2.96097 11.9016C3.3676 11.9008 3.64177 11.8719 3.90963 11.8001C4.81665 11.5567 5.49059 11.026 5.8909 10.1744L5.89104 10.1744ZM4.62294 8.91701C4.60816 9.30422 4.49626 9.65972 4.23646 9.95557C3.90291 10.3353 3.4756 10.4963 2.97333 10.4643C2.25304 10.4186 1.67353 9.88562 1.57426 9.10934C1.5627 9.01933 1.55854 8.92852 1.55088 8.83797C1.55881 8.47003 1.64115 8.12469 1.86468 7.82536C2.16196 7.42719 2.57154 7.23767 3.0628 7.23392C3.6685 7.22924 4.13974 7.47681 4.4334 8.01702C4.58533 8.29655 4.63489 8.60217 4.62294 8.91701Z" fill="#210250"/>
<path d="M18.4791 6.55536e-08L16.9794 0L16.9794 7.18938L18.4791 7.18938L18.4791 6.55536e-08Z" fill="#FF00D1"/>
<path d="M21.0837 2.81393C20.0196 3.19872 19.2488 3.15672 18.4791 3.00265L16.9794 2.66266C16.1319 2.49962 15.1569 2.43208 13.9066 2.79962L14.3312 4.23166C15.4096 3.91468 16.1797 4.0087 16.9794 4.18793L18.4791 4.52002C18.7967 4.57205 19.132 4.60696 19.4925 4.60696C20.1087 4.60696 20.7982 4.50571 21.5956 4.21735L21.0836 2.81393L21.0837 2.81393Z" fill="#FF00D1"/>
</g>
<defs>
<clipPath id="clip0_5239_509">
<rect width="21.3505" height="13.841" fill="white" transform="scale(1.01149)"/>
</clipPath>
</defs>
</svg>
