<svg width="42" height="43" viewBox="0 0 42 43" fill="none" xmlns="http://www.w3.org/2000/svg">
<g filter="url(#filter0_d_0_181)">
<path fill-rule="evenodd" clip-rule="evenodd" d="M0 7.36C0 4.78376 0 3.49564 0.50137 2.51164C0.942388 1.6461 1.6461 0.942388 2.51164 0.50137C3.49564 0 4.78376 0 7.36 0H34.64C37.2162 0 38.5044 0 39.4884 0.50137C40.3539 0.942388 41.0576 1.6461 41.4986 2.51164C42 3.49564 42 4.78376 42 7.36V34.64C42 37.2162 42 38.5044 41.4986 39.4884C41.0576 40.3539 40.3539 41.0576 39.4884 41.4986C38.5044 42 37.2162 42 34.64 42H7.36C4.78376 42 3.49564 42 2.51164 41.4986C1.6461 41.0576 0.942388 40.3539 0.50137 39.4884C0 38.5044 0 37.2162 0 34.64V7.36Z" fill="#ADB3BC"/>
</g>
<path fill-rule="evenodd" clip-rule="evenodd" d="M13.213 16.7783C13.198 16.792 13.1688 16.8203 13.1365 16.8521C13.113 16.8752 13.0943 16.8938 13.0556 16.9326L10.9124 19.0757C10.8563 19.1345 10.8173 19.174 10.7268 19.2645C10.6762 19.3151 10.6391 19.3539 10.5593 19.4387C10.4108 19.5824 10.2543 19.7539 10.1076 19.9349C9.96929 20.0813 9.85878 20.2517 9.7816 20.4379C9.62269 20.922 9.62269 21.3925 9.76424 21.8295L9.7832 21.8805C9.86101 22.0647 9.97086 22.2336 10.1076 22.3793C10.2544 22.5591 10.4109 22.7306 10.5764 22.8933C10.6391 22.9606 10.6762 22.9994 10.7268 23.05L10.9124 23.2356L12.8664 25.1928C12.9578 25.2841 13.0027 25.3285 13.0546 25.3782C13.11 25.4365 13.1682 25.4945 13.2266 25.5494C13.2371 25.5587 15.7275 28.0475 15.7275 28.0475C15.8044 28.1244 15.8664 28.1849 16.006 28.3196C16.0208 28.3341 16.0433 28.357 16.0502 28.3642C16.0861 28.402 16.107 28.4239 16.1208 28.4378C16.4113 28.7285 16.7452 28.973 17.1104 29.1621C17.4847 29.3484 17.8741 29.4766 18.2759 29.5473C18.6554 29.6093 19.0313 29.6426 19.4081 29.648C19.4729 29.6493 19.5268 29.65 19.6469 29.6512C19.7628 29.6523 19.8139 29.653 19.8766 29.6542L27.2974 29.6543C27.3739 29.653 27.4257 29.6523 27.5428 29.6512C27.6641 29.65 27.7185 29.6493 27.7881 29.6479C28.1665 29.6412 28.5451 29.6069 28.9197 29.5453C29.3303 29.4758 29.7252 29.3454 30.0939 29.158C30.4654 28.9694 30.8045 28.7226 31.0985 28.4271C31.3908 28.1336 31.6362 27.7963 31.8257 27.4275C32.0128 27.053 32.1414 26.6598 32.2105 26.2543C32.2733 25.8752 32.3066 25.4948 32.3107 25.1135C32.314 25.035 32.3155 24.96 32.3177 24.7941C32.3187 24.7152 32.3192 24.6804 32.32 24.6377L32.3202 17.6483C32.3192 17.5938 32.3187 17.5592 32.3177 17.4818L32.3165 17.4013C32.315 17.2999 32.3132 17.2237 32.3102 17.1479C32.3061 16.789 32.274 16.4134 32.2147 16.0417C32.1424 15.63 32.0142 15.2406 31.8326 14.8754C31.6416 14.5025 31.3978 14.1677 31.1066 13.8767C30.8165 13.5843 30.4795 13.3385 30.1102 13.1504C29.7432 12.9666 29.3556 12.8382 28.9556 12.7674C28.5719 12.7063 28.1954 12.6742 27.818 12.6696C27.6933 12.6644 27.5828 12.6633 27.3383 12.6633C27.2582 12.6619 27.1646 12.661 27.0593 12.6606C26.9801 12.6602 26.9171 12.6602 26.775 12.6602H20.4525C20.169 12.6602 20.0406 12.6607 19.8787 12.6634C19.6448 12.6633 19.5343 12.6644 19.392 12.6701C19.0332 12.6739 18.6573 12.706 18.2853 12.7656C17.8741 12.8379 17.4847 12.9661 17.1195 13.1478C16.7452 13.3415 16.4113 13.586 16.1206 13.877C16.107 13.8906 16.0861 13.9125 16.0516 13.9488C16.0433 13.9575 16.006 13.9949 16.006 13.9949C15.8664 14.1296 15.8044 14.1901 15.7275 14.267L15.4065 14.588L13.2715 16.726C13.2528 16.741 13.2328 16.7585 13.213 16.7783ZM26.775 13.919C26.9154 13.919 26.9771 13.9191 27.054 13.9194C27.1544 13.9198 27.243 13.9206 27.3279 13.922C27.566 13.9221 27.6653 13.9231 27.7852 13.9279C28.119 13.9322 28.4346 13.9591 28.747 14.0087C29.0164 14.0566 29.2881 14.1465 29.5426 14.274C29.789 14.3995 30.0172 14.5659 30.2149 14.7652C30.415 14.9652 30.581 15.1932 30.7088 15.4427C30.8334 15.6931 30.9236 15.9672 30.9733 16.2499C31.0213 16.5512 31.0481 16.8656 31.0519 17.1807C31.0549 17.2615 31.0565 17.3282 31.0579 17.42L31.0589 17.4984C31.06 17.5787 31.0605 17.6152 31.0615 17.6609L31.0613 24.6253C31.0605 24.6594 31.06 24.696 31.0589 24.7776C31.0569 24.9326 31.0556 25.0003 31.0524 25.0822C31.0486 25.417 31.0209 25.7331 30.9691 26.0456C30.9212 26.3263 30.8313 26.6012 30.7028 26.8586C30.5759 27.1056 30.4073 27.3373 30.2063 27.5391C30.0064 27.74 29.7761 27.9076 29.5238 28.0358C29.2683 28.1656 28.9948 28.2559 28.7125 28.3036C28.4009 28.3549 28.0832 28.3837 27.7647 28.3893C27.6993 28.3906 27.6475 28.3912 27.5304 28.3924C27.4092 28.3936 27.3547 28.3943 27.2851 28.3956L19.8892 28.3955C19.8334 28.3943 19.7796 28.3936 19.6595 28.3924C19.5436 28.3912 19.4925 28.3906 19.4297 28.3894C19.1113 28.3848 18.7972 28.357 18.4864 28.3062C18.2113 28.2577 17.9372 28.1676 17.6803 28.0397C17.4391 27.9147 17.2104 27.7473 17.0112 27.5479L16.9621 27.4964C16.9132 27.4453 16.8921 27.4235 16.8678 27.4019C16.7424 27.2808 16.6853 27.2251 16.6176 27.1574L14.122 24.6618C14.0992 24.641 14.0854 24.6285 14.0759 24.62C14.0308 24.5767 13.9939 24.5394 13.959 24.5024C13.8869 24.4326 13.8475 24.3936 13.7569 24.303L11.8029 22.3459L11.6169 22.1598C11.5783 22.1212 11.5472 22.0887 11.476 22.013C11.321 21.86 11.1909 21.7169 11.0692 21.5667L11.0312 21.5239C10.9994 21.4913 10.9731 21.4539 10.9531 21.4132C10.9047 21.2453 10.9048 21.0672 10.9536 20.8995C10.9725 20.8604 10.9977 20.8246 11.0283 20.7936L11.0712 20.7454C11.1908 20.5962 11.3195 20.4545 11.4566 20.3212C11.5472 20.2258 11.5783 20.1933 11.6169 20.1547C11.7151 20.0564 11.759 20.012 11.8138 19.9543L13.7569 18.0115L13.9457 17.8227C13.9833 17.7851 13.9994 17.769 14.0199 17.7489L14.0614 17.7115C14.0917 17.6844 14.1085 17.6694 14.1251 17.6527L16.2969 15.4778L16.6176 15.1571C16.6853 15.0894 16.7424 15.0337 16.8678 14.9126C16.8921 14.891 16.9132 14.8692 16.9605 14.8198L17.011 14.7669C17.2104 14.5672 17.4391 14.3998 17.6893 14.2702C17.9372 14.1469 18.2113 14.0568 18.494 14.007C18.7954 13.9588 19.1095 13.932 19.4243 13.9284C19.5623 13.9231 19.6616 13.9221 19.8892 13.9221C20.0522 13.9195 20.1759 13.919 20.4525 13.919H26.775ZM20.813 24.4886C20.7621 24.5386 20.7013 24.5793 20.6327 24.6076C20.4208 24.6952 20.1769 24.6462 20.0151 24.4837C19.795 24.2627 19.795 23.9054 20.0151 23.6844C20.0472 23.6521 20.0825 23.6244 20.1201 23.6013L22.5642 21.1545L20.0151 18.6081L20.0228 18.6004C19.9728 18.5495 19.9321 18.4886 19.9038 18.4201C19.8162 18.2081 19.8652 17.9643 20.0277 17.8025C20.2487 17.5824 20.606 17.5824 20.827 17.8025C20.8592 17.8345 20.8869 17.8698 20.91 17.9073L23.3623 20.3556L25.8376 17.8777C25.8559 17.8513 25.8768 17.8261 25.9001 17.8025C26.0613 17.6406 26.3042 17.5918 26.5154 17.679C26.7265 17.7662 26.8643 17.9721 26.8643 18.2006C26.8643 18.3529 26.8031 18.4951 26.6997 18.5989L26.7058 18.605L24.1607 21.1528L26.6446 23.6327C26.667 23.6491 26.6886 23.6674 26.7089 23.6875C26.8708 23.8487 26.9196 24.0916 26.8324 24.3027C26.7452 24.5139 26.5393 24.6517 26.3108 24.6517C26.1585 24.6517 26.0163 24.5904 25.9125 24.4871L25.9064 24.4931L23.3624 21.9519L20.8207 24.4963L20.813 24.4886Z" fill="black"/>
<defs>
<filter id="filter0_d_0_181" x="0" y="0" width="42" height="43" filterUnits="userSpaceOnUse" color-interpolation-filters="sRGB">
<feFlood flood-opacity="0" result="BackgroundImageFix"/>
<feColorMatrix in="SourceAlpha" type="matrix" values="0 0 0 0 0 0 0 0 0 0 0 0 0 0 0 0 0 0 127 0" result="hardAlpha"/>
<feOffset dy="1"/>
<feColorMatrix type="matrix" values="0 0 0 0 0.537255 0 0 0 0 0.541176 0 0 0 0 0.552941 0 0 0 1 0"/>
<feBlend mode="normal" in2="BackgroundImageFix" result="effect1_dropShadow_0_181"/>
<feBlend mode="normal" in="SourceGraphic" in2="effect1_dropShadow_0_181" result="shape"/>
</filter>
</defs>
</svg>
