<svg width="18" height="18" viewBox="0 0 18 18" fill="none" xmlns="http://www.w3.org/2000/svg">
<path opacity="0.5" d="M7.52819 3.98713L8.01495 4.85933C8.45423 5.64643 8.27789 6.67899 7.58604 7.37084C7.58603 7.37085 7.58604 7.37085 7.58603 7.37085C7.58586 7.37103 6.74699 8.21022 8.26839 9.73161C9.78881 11.252 10.6279 10.4152 10.6291 10.414C10.6292 10.4139 10.6292 10.414 10.6292 10.4139C11.3211 9.7221 12.3536 9.54578 13.1407 9.98505L14.0129 10.4718C15.2014 11.1351 15.3418 12.8019 14.2971 13.8466C13.6693 14.4744 12.9003 14.9629 12.0502 14.9951C10.6191 15.0493 8.18871 14.6872 5.75078 12.2492C3.31285 9.81129 2.95066 7.38092 3.00491 5.94982C3.03714 5.0997 3.5256 4.33068 4.15335 3.70292C5.19807 2.65821 6.86488 2.79858 7.52819 3.98713Z" fill="#3F5FE0"/>
<path d="M9.94462 1.41006C9.99426 1.10339 10.2842 0.895358 10.5908 0.945006C10.6098 0.94864 10.6709 0.960055 10.7029 0.967182C10.7669 0.981435 10.8562 1.00338 10.9675 1.0358C11.1901 1.10063 11.501 1.20743 11.8742 1.37854C12.6214 1.7211 13.6158 2.32035 14.6476 3.3522C15.6795 4.38405 16.2787 5.37841 16.6213 6.12562C16.7924 6.49883 16.8992 6.80979 16.964 7.03237C16.9965 7.14368 17.0184 7.23295 17.0327 7.29694C17.0398 7.32895 17.045 7.35464 17.0486 7.37362L17.0529 7.39702C17.1026 7.70369 16.8965 8.00557 16.5898 8.05522C16.284 8.10473 15.9959 7.8977 15.945 7.59247C15.9435 7.58428 15.9392 7.56226 15.9346 7.5415C15.9253 7.49996 15.9093 7.43409 15.8839 7.34698C15.8332 7.17272 15.745 6.91372 15.5987 6.59447C15.3063 5.95674 14.7805 5.0761 13.8521 4.1477C12.9237 3.2193 12.0431 2.69356 11.4054 2.40118C11.0861 2.25482 10.8271 2.16667 10.6529 2.11591C10.5657 2.09054 10.4563 2.06541 10.4147 2.05615C10.1095 2.00529 9.89511 1.71585 9.94462 1.41006Z" fill="#3F5FE0"/>
<path fill-rule="evenodd" clip-rule="evenodd" d="M10.1143 3.99716C10.1996 3.69845 10.511 3.52548 10.8097 3.61083L10.6552 4.15169C10.8097 3.61083 10.8097 3.61083 10.8097 3.61083L10.8108 3.61114L10.8119 3.61147L10.8144 3.6122L10.8202 3.61394L10.8351 3.61856C10.8464 3.62218 10.8605 3.62689 10.8773 3.63286C10.911 3.64481 10.9555 3.66181 11.0102 3.68521C11.1194 3.73204 11.2687 3.80436 11.4521 3.91289C11.8192 4.13015 12.3203 4.49103 12.9091 5.07976C13.4978 5.66849 13.8587 6.16963 14.0759 6.53673C14.1845 6.72011 14.2568 6.86941 14.3036 6.97868C14.327 7.03328 14.344 7.0778 14.356 7.11148C14.3619 7.12832 14.3667 7.14244 14.3703 7.15375L14.3749 7.16859L14.3766 7.17441L14.3774 7.17691L14.3777 7.17806C14.3777 7.17806 14.378 7.17914 13.8371 7.33367L14.378 7.17914C14.4633 7.47784 14.2904 7.78918 13.9917 7.87452C13.6955 7.95914 13.3869 7.78982 13.2985 7.49578L13.2957 7.48769C13.2917 7.47642 13.2835 7.45424 13.2696 7.42183C13.2418 7.35708 13.1915 7.25116 13.1078 7.10972C12.9406 6.82716 12.6385 6.40022 12.1136 5.87526C11.5886 5.35029 11.1617 5.04827 10.8791 4.88104C10.7377 4.79733 10.6317 4.747 10.567 4.71925C10.5346 4.70537 10.5124 4.69709 10.5011 4.69309L10.493 4.69032C10.199 4.60191 10.0297 4.29333 10.1143 3.99716Z" fill="#3F5FE0"/>
</svg>
