<svg width="42" height="43" viewBox="0 0 42 43" fill="none" xmlns="http://www.w3.org/2000/svg">
<g filter="url(#filter0_d_0_194)">
<rect width="42" height="42" rx="4.6" fill="#FCFCFE"/>
</g>
<path d="M29.8002 22.6645H25.6031V26.6336C25.6031 26.7136 25.6031 26.7869 25.6031 26.8635C25.6031 26.9302 25.6031 26.9935 25.6005 27.0602C25.5986 27.2031 25.5863 27.3456 25.5635 27.4867C25.5387 27.6269 25.4938 27.7627 25.4302 27.89C25.3651 28.0171 25.28 28.133 25.1782 28.2332C25.076 28.3334 24.9593 28.4177 24.832 28.4832C24.7031 28.5459 24.5661 28.5908 24.4251 28.6165C24.2836 28.6387 24.1407 28.6509 23.9975 28.6531C23.9309 28.6531 23.8662 28.6565 23.8009 28.6565H18.4018C18.3351 28.6565 18.2708 28.6531 18.2051 28.6531C18.0619 28.6509 17.9191 28.6387 17.7776 28.6165C17.6366 28.5908 17.4998 28.5459 17.371 28.4832C17.2437 28.4177 17.127 28.3334 17.0248 28.2332C16.9229 28.133 16.8379 28.0172 16.7728 27.89C16.7092 27.7627 16.6643 27.6269 16.6395 27.4867C16.6166 27.3457 16.6041 27.2031 16.6022 27.0602C16.6022 26.9935 16.5995 26.9302 16.5995 26.8635C16.5995 26.7869 16.5995 26.7136 16.5995 26.6336V22.6645H12.3361C11.9049 22.6645 11.3517 21.7347 11.8696 21.2182C12.3098 20.7816 19.2289 13.8831 20.6769 12.4468C20.7833 12.316 20.9336 12.2284 21.0998 12.2002H21.1112C21.2549 12.208 21.3885 12.2772 21.4777 12.3902C22.9257 13.8265 29.8685 20.7816 30.3091 21.2182C30.8273 21.7347 30.3934 22.6645 29.8002 22.6645Z" fill="black"/>
<defs>
<filter id="filter0_d_0_194" x="0" y="0" width="42" height="43" filterUnits="userSpaceOnUse" color-interpolation-filters="sRGB">
<feFlood flood-opacity="0" result="BackgroundImageFix"/>
<feColorMatrix in="SourceAlpha" type="matrix" values="0 0 0 0 0 0 0 0 0 0 0 0 0 0 0 0 0 0 127 0" result="hardAlpha"/>
<feOffset dy="1"/>
<feColorMatrix type="matrix" values="0 0 0 0 0.537255 0 0 0 0 0.541176 0 0 0 0 0.552941 0 0 0 1 0"/>
<feBlend mode="normal" in2="BackgroundImageFix" result="effect1_dropShadow_0_194"/>
<feBlend mode="normal" in="SourceGraphic" in2="effect1_dropShadow_0_194" result="shape"/>
</filter>
</defs>
</svg>
