<svg width="24" height="24" viewBox="0 0 24 24" fill="none" xmlns="http://www.w3.org/2000/svg">
<path fill-rule="evenodd" clip-rule="evenodd" d="M2.0257 15.75C2.09183 17.7712 2.32801 18.9849 3.17155 19.8284C3.47597 20.1328 3.82859 20.3582 4.24998 20.5249V22C4.24998 22.4142 4.58577 22.75 4.99998 22.75C5.41419 22.75 5.74998 22.4142 5.74998 22V20.8713C6.81987 21 8.19362 21 9.99998 21H12.0003H14C15.8063 21 17.1801 21 18.25 20.8713V22C18.25 22.4142 18.5858 22.75 19 22.75C19.4142 22.75 19.75 22.4142 19.75 22V20.5249C20.1714 20.3582 20.524 20.1328 20.8284 19.8284C21.6366 19.0203 21.8873 17.8723 21.965 16L21.9743 15.75C21.9761 15.358 22 13.4419 22 13V10C22 6.22876 22 4.34315 20.8284 3.17157C19.6568 2 17.7712 2 14 2H12.75V15.75H12.0003H2.0257ZM6.24998 18C6.24998 17.5858 6.58577 17.25 6.99998 17.25H8.99998C9.41419 17.25 9.74998 17.5858 9.74998 18C9.74998 18.4142 9.41419 18.75 8.99998 18.75H6.99998C6.58577 18.75 6.24998 18.4142 6.24998 18ZM15 17.25C14.5858 17.25 14.25 17.5858 14.25 18C14.25 18.4142 14.5858 18.75 15 18.75H17C17.4142 18.75 17.75 18.4142 17.75 18C17.75 17.5858 17.4142 17.25 17 17.25H15ZM15 7.25C15.4142 7.25 15.75 7.58579 15.75 8V10C15.75 10.4142 15.4142 10.75 15 10.75C14.5858 10.75 14.25 10.4142 14.25 10V8C14.25 7.58579 14.5858 7.25 15 7.25Z" fill="#E10A0A"/>
<g opacity="0.5">
<path d="M10 2H11.25V7.25H2.02572C2.09185 5.22882 2.32803 4.01511 3.17157 3.17157C4.34315 2 6.22876 2 10 2Z" fill="#E10A0A"/>
<path d="M2.00189 8.75C2 9.14203 2 9.55807 2 10V13C2 13.4419 2.02351 15.358 2.02539 15.75H11.25V8.75H2.00189Z" fill="#E10A0A"/>
</g>
</svg>
