<svg width="14" height="14" viewBox="0 0 14 14" fill="none" xmlns="http://www.w3.org/2000/svg">
<path opacity="0.5" d="M12.25 6.47355V9.38636C12.25 11.1927 12.25 12.0959 11.8218 12.4905C11.6175 12.6787 11.3597 12.797 11.0851 12.8284C10.5093 12.8943 9.8369 12.2995 8.49207 11.1101C7.89762 10.5843 7.60039 10.3214 7.2565 10.2521C7.08717 10.218 6.91283 10.218 6.7435 10.2521C6.39961 10.3214 6.10238 10.5843 5.50793 11.1101C4.16309 12.2995 3.49068 12.8943 2.91487 12.8284C2.64025 12.797 2.38246 12.6787 2.17823 12.4905C1.75 12.0959 1.75 11.1927 1.75 9.38636V6.47355C1.75 3.97186 1.75 2.72102 2.51884 1.94384C3.28769 1.16666 4.52513 1.16666 7 1.16666C9.47487 1.16666 10.7123 1.16666 11.4812 1.94384C12.25 2.72102 12.25 3.97186 12.25 6.47355Z" fill="#E10A0A"/>
<path d="M5.25 3.0625C5.00838 3.0625 4.8125 3.25838 4.8125 3.5C4.8125 3.74162 5.00838 3.9375 5.25 3.9375H8.75C8.99162 3.9375 9.1875 3.74162 9.1875 3.5C9.1875 3.25838 8.99162 3.0625 8.75 3.0625H5.25Z" fill="#E10A0A"/>
</svg>
