<svg width="13" height="16" viewBox="0 0 13 16" fill="none" xmlns="http://www.w3.org/2000/svg">
<path fill-rule="evenodd" clip-rule="evenodd" d="M8.91124 0.5C9.06124 1.325 8.68624 2.15 8.23624 2.75C7.78624 3.35 6.96124 3.875 6.13624 3.8C5.98624 2.975 6.36124 2.225 6.81124 1.625C7.33624 1.025 8.16124 0.575 8.91124 0.5ZM11.3112 13.55C11.6862 12.95 11.9112 12.575 12.2112 11.9C9.88624 11 9.51124 7.7 11.8362 6.5C11.1612 5.6 10.1862 5.15 9.21124 5.15C8.53624 5.15 8.08624 5.3 7.63624 5.45C7.26124 5.6 6.96124 5.675 6.58624 5.675C6.13624 5.675 5.83624 5.525 5.38624 5.375C4.93624 5.225 4.48624 5.075 3.96124 5.075C2.91124 5.075 1.78624 5.675 1.11124 6.8C0.136239 8.3 0.286239 11.225 1.86124 13.625C2.53624 14.525 3.28624 15.5 4.26124 15.5C4.71124 15.5 4.93624 15.35 5.23624 15.275C5.61124 15.125 5.98624 14.975 6.58624 14.975C7.26124 14.975 7.56124 15.125 7.93624 15.275C8.23624 15.425 8.46124 15.5 8.91124 15.5C9.96124 15.5 10.7112 14.375 11.3112 13.55Z" fill="#131C35" stroke="#131C35" stroke-miterlimit="10" stroke-linecap="round" stroke-linejoin="round"/>
</svg>
