<svg width="18" height="18" viewBox="0 0 18 18" fill="none" xmlns="http://www.w3.org/2000/svg">
<path d="M9 0C13.9706 0 18 4.02944 18 9C18 13.9706 13.9706 18 9 18C4.02944 18 0 13.9706 0 9C0 4.02944 4.02944 0 9 0ZM9 1.5C4.85786 1.5 1.5 4.85786 1.5 9C1.5 13.1421 4.85786 16.5 9 16.5C13.1421 16.5 16.5 13.1421 16.5 9C16.5 4.85786 13.1421 1.5 9 1.5ZM9 3.75C11.8995 3.75 14.25 6.1005 14.25 9C14.25 11.8995 11.8995 14.25 9 14.25C6.1005 14.25 3.75 11.8995 3.75 9C3.75 6.1005 6.1005 3.75 9 3.75Z" fill="#E10A0A"/>
</svg>
