<svg width="24" height="24" viewBox="0 0 24 24" fill="none" xmlns="http://www.w3.org/2000/svg">
<path fill-rule="evenodd" clip-rule="evenodd" d="M14.0564 3.25H9.94358C8.10582 3.24998 6.65019 3.24997 5.51098 3.40314C4.33856 3.56076 3.38961 3.89288 2.64124 4.64124C1.89288 5.38961 1.56076 6.33856 1.40314 7.51098C1.31267 8.18385 1.27564 8.9671 1.26049 9.87428C1.25359 9.91516 1.25 9.95716 1.25 10C1.25 10.0353 1.25243 10.0699 1.25714 10.1039C1.24999 10.6696 1.24999 11.2818 1.25 11.9436V12.0564C1.24998 13.8942 1.24997 15.3498 1.40314 16.489C1.56076 17.6614 1.89288 18.6104 2.64124 19.3588C3.38961 20.1071 4.33856 20.4392 5.51098 20.5969C6.65019 20.75 8.10583 20.75 9.94359 20.75H14.0564C15.8942 20.75 17.3498 20.75 18.489 20.5969C19.6614 20.4392 20.6104 20.1071 21.3588 19.3588C22.1071 18.6104 22.4392 17.6614 22.5969 16.489C22.75 15.3498 22.75 13.8942 22.75 12.0564V11.9436C22.75 11.2818 22.75 10.6696 22.7429 10.1039C22.7476 10.0699 22.75 10.0352 22.75 10C22.75 9.95716 22.7464 9.91517 22.7395 9.87429C22.7244 8.96711 22.6873 8.18385 22.5969 7.51098C22.4392 6.33856 22.1071 5.38961 21.3588 4.64124C20.6104 3.89288 19.6614 3.56076 18.489 3.40314C17.3498 3.24997 15.8942 3.24998 14.0564 3.25ZM21.248 10.75C21.2499 11.1384 21.25 11.5541 21.25 12C21.25 13.9068 21.2484 15.2615 21.1102 16.2892C20.975 17.2952 20.7213 17.8749 20.2981 18.2981C19.8749 18.7213 19.2952 18.975 18.2892 19.1102C17.2615 19.2484 15.9068 19.25 14 19.25H10C8.09318 19.25 6.73851 19.2484 5.71085 19.1102C4.70476 18.975 4.12511 18.7213 3.7019 18.2981C3.27869 17.8749 3.02502 17.2952 2.88976 16.2892C2.75159 15.2615 2.75 13.9068 2.75 12C2.75 11.5541 2.75009 11.1384 2.75199 10.75H21.248ZM2.77607 9.25H21.2239C21.2044 8.66327 21.1701 8.15634 21.1102 7.71085C20.975 6.70476 20.7213 6.12511 20.2981 5.7019C19.8749 5.27869 19.2952 5.02502 18.2892 4.88976C17.2615 4.75159 15.9068 4.75 14 4.75H10C8.09318 4.75 6.73851 4.75159 5.71085 4.88976C4.70476 5.02502 4.12511 5.27869 3.7019 5.7019C3.27869 6.12511 3.02502 6.70476 2.88976 7.71085C2.82986 8.15634 2.79564 8.66327 2.77607 9.25ZM18.75 16C18.75 15.5858 18.4142 15.25 18 15.25H14C13.5858 15.25 13.25 15.5858 13.25 16C13.25 16.4142 13.5858 16.75 14 16.75H18C18.4142 16.75 18.75 16.4142 18.75 16ZM12.25 16C12.25 15.5858 11.9142 15.25 11.5 15.25H10C9.58579 15.25 9.25 15.5858 9.25 16C9.25 16.4142 9.58579 16.75 10 16.75H11.5C11.9142 16.75 12.25 16.4142 12.25 16Z" fill="white"/>
</svg>
