<svg width="18" height="18" viewBox="0 0 18 18" fill="none" xmlns="http://www.w3.org/2000/svg">
<g clip-path="url(#clip0_5054_118658)">
<path d="M2.37868 15.6213C3.25736 16.5 4.67157 16.5 7.5 16.5C10.3284 16.5 11.7426 16.5 12.6213 15.6213C13.5 14.7426 13.5 13.3284 13.5 10.5C13.5 9.73095 13.1921 8.99527 12.6483 8.45147L9.54853 5.35166C9.00473 4.80786 8.26905 4.5 7.5 4.5C4.67157 4.5 3.25736 4.5 2.37868 5.37868C1.5 6.25736 1.5 7.67157 1.5 10.5C1.5 13.3284 1.5 14.7426 2.37868 15.6213Z" stroke="#131C35" stroke-width="1.5"/>
<path opacity="0.5" d="M13.5 13.4239C14.4751 13.328 15.1314 13.1112 15.6213 12.6213C16.5 11.7426 16.5 10.3284 16.5 7.5C16.5 6.73095 16.1921 5.99527 15.6483 5.45147L12.5485 2.35166C12.0047 1.80786 11.269 1.5 10.5 1.5C7.67157 1.5 6.25736 1.5 5.37868 2.37868C4.88879 2.86857 4.67203 3.52492 4.57612 4.5" stroke="#131C35" stroke-width="1.5"/>
<path opacity="0.5" d="M7.5 10.5H6.75C6.04289 10.5 5.68934 10.5 5.46967 10.7197C5.25 10.9393 5.25 11.2929 5.25 12V12.75C5.25 13.4571 5.25 13.8107 5.46967 14.0303C5.68934 14.25 6.04289 14.25 6.75 14.25H7.5M7.5 10.5H8.25C8.95711 10.5 9.31066 10.5 9.53033 10.7197C9.75 10.9393 9.75 11.2929 9.75 12V12.375M7.5 10.5V12.375M7.5 14.25H8.25C8.95711 14.25 9.31066 14.25 9.53033 14.0303C9.75 13.8107 9.75 13.4571 9.75 12.75V12.375M7.5 14.25V12.375M7.5 12.375H9.75" stroke="#131C35" stroke-width="1.5"/>
</g>
<defs>
<clipPath id="clip0_5054_118658">
<rect width="18" height="18" fill="white"/>
</clipPath>
</defs>
</svg>
