<svg width="16" height="16" viewBox="0 0 16 16" fill="none" xmlns="http://www.w3.org/2000/svg">
<path opacity="0.4" d="M12.6666 13.3333V12.3333M3.33331 13.3333V12.3333" stroke="#1C274C" stroke-width="0.981618" stroke-linecap="round"/>
<path d="M1.33335 10C1.33335 9.37875 1.33335 9.06812 1.43484 8.8231C1.57017 8.49639 1.82973 8.23683 2.15644 8.1015C2.40146 8.00001 2.71209 8.00001 3.33335 8.00001H12.6667C13.2879 8.00001 13.5986 8.00001 13.8436 8.1015C14.1703 8.23683 14.4299 8.49639 14.5652 8.8231C14.6667 9.06812 14.6667 9.37875 14.6667 10C14.6667 10.6213 14.6667 10.9319 14.5652 11.1769C14.4299 11.5036 14.1703 11.7632 13.8436 11.8985C13.5986 12 13.2879 12 12.6667 12H3.33335C2.71209 12 2.40146 12 2.15644 11.8985C1.82973 11.7632 1.57017 11.5036 1.43484 11.1769C1.33335 10.9319 1.33335 10.6213 1.33335 10Z" stroke="#1C274C" stroke-width="0.981618"/>
<path d="M14 8C14 5.48584 14 4.22876 13.219 3.44771C12.4379 2.66666 11.1808 2.66666 8.66669 2.66666H7.33335C4.8192 2.66666 3.56212 2.66666 2.78107 3.44771C2.00002 4.22876 2.00002 5.48584 2.00002 8" stroke="#1C274C" stroke-width="0.981618"/>
<path opacity="0.4" d="M12.3333 8V7C12.3333 5.74292 12.3333 5.11438 11.9428 4.72386C11.5523 4.33333 10.9237 4.33333 9.66664 4.33333H6.33331C5.07623 4.33333 4.44769 4.33333 4.05717 4.72386C3.66664 5.11438 3.66664 5.74292 3.66664 7V8M7.99998 4.66667V8" stroke="#1C274C" stroke-width="0.981618"/>
</svg>
