<svg width="12" height="12" viewBox="0 0 12 12" fill="none" xmlns="http://www.w3.org/2000/svg">
<path opacity="0.4" d="M9.49992 9.99998V9.24998M2.49992 9.99998V9.24998" stroke="#1C274C" stroke-width="0.75" stroke-linecap="round"/>
<path d="M0.999924 7.5C0.999924 7.03406 0.999924 6.80109 1.07604 6.61732C1.17754 6.37229 1.37221 6.17761 1.61724 6.07612C1.80101 6 2.03398 6 2.49992 6H9.49992C9.96587 6 10.1988 6 10.3826 6.07612C10.6276 6.17761 10.8223 6.37229 10.9238 6.61732C10.9999 6.80109 10.9999 7.03406 10.9999 7.5C10.9999 7.96594 10.9999 8.19891 10.9238 8.38268C10.8223 8.62771 10.6276 8.82239 10.3826 8.92388C10.1988 9 9.96587 9 9.49992 9H2.49992C2.03398 9 1.80101 9 1.61724 8.92388C1.37221 8.82239 1.17754 8.62771 1.07604 8.38268C0.999924 8.19891 0.999924 7.96594 0.999924 7.5Z" stroke="#1C274C" stroke-width="0.75"/>
<path d="M10.5 6.00002C10.5 4.1144 10.5 3.17159 9.91421 2.5858C9.32843 2.00002 8.38562 2.00002 6.5 2.00002H5.5C3.61438 2.00002 2.67157 2.00002 2.08579 2.5858C1.5 3.17159 1.5 4.1144 1.5 6.00002" stroke="#1C274C" stroke-width="0.75"/>
<path opacity="0.4" d="M9.25008 5.99998V5.24998C9.25008 4.30718 9.25008 3.83577 8.95718 3.54288C8.66429 3.24998 8.19289 3.24998 7.25008 3.24998H4.75008C3.80727 3.24998 3.33586 3.24998 3.04297 3.54288C2.75008 3.83577 2.75008 4.30718 2.75008 5.24998V5.99998M6.00008 3.49998V5.99998" stroke="#1C274C" stroke-width="0.75"/>
</svg>
