<svg width="16" height="16" viewBox="0 0 16 16" fill="none" xmlns="http://www.w3.org/2000/svg">
<g clip-path="url(#clip0_5239_1476)">
<path d="M2.00008 8.72179C2.00008 8.67061 2.00008 8.64502 2.00149 8.62341C2.02321 8.28931 2.28938 8.02314 2.62349 8.00141C2.6451 8.00001 2.67069 8.00001 2.72187 8.00001H13.2783C13.3295 8.00001 13.3551 8.00001 13.3767 8.00141C13.7108 8.02314 13.9769 8.28931 13.9987 8.62341C14.0001 8.64502 14.0001 8.67061 14.0001 8.72179C14.0001 8.98557 14.0001 9.11747 13.9907 9.26511C13.8516 11.457 11.9887 13.3911 9.80363 13.6124C9.65644 13.6273 9.57058 13.6306 9.39886 13.637C8.90944 13.6554 8.43296 13.6667 8.00008 13.6667C7.56721 13.6667 7.09073 13.6554 6.6013 13.637C6.42958 13.6306 6.34372 13.6273 6.19653 13.6124C4.01145 13.3911 2.14857 11.457 2.00945 9.26511C2.00008 9.11747 2.00008 8.98557 2.00008 8.72179Z" stroke="#1C274C" stroke-width="0.981618"/>
<path opacity="0.5" d="M4.0001 13.3333L3.33343 14.6667" stroke="#1C274C" stroke-width="0.981618" stroke-linecap="round"/>
<path opacity="0.5" d="M12.0001 13.3333L12.6667 14.6667" stroke="#1C274C" stroke-width="0.981618" stroke-linecap="round"/>
<path d="M1.33341 8.00001H14.6667" stroke="#1C274C" stroke-width="0.981618" stroke-linecap="round"/>
<path opacity="0.5" d="M2.00008 8.66666V2.92344C2.00008 2.04525 2.712 1.33333 3.59019 1.33333C4.2404 1.33333 4.82509 1.72919 5.06657 2.33289L5.33342 2.92344" stroke="#1C274C" stroke-width="0.981618" stroke-linecap="round"/>
<path d="M5.31955 2.9648L5.5384 3.41436L5.31955 2.9648ZM4.24172 4.12826L4.70498 4.31638L4.24172 4.12826ZM7.05165 2.9186L6.85522 3.37839L7.05165 2.9186ZM4.2307 5.82775L3.76551 6.01105C3.81512 6.13694 3.91363 6.23735 4.03855 6.28935C4.16346 6.34135 4.30413 6.3405 4.42841 6.287L4.2307 5.82775ZM8.20454 4.11703L8.40225 4.57628C8.65031 4.46949 8.76874 4.185 8.66973 3.93373L8.20454 4.11703ZM4.69589 5.64445C4.53476 5.23552 4.52457 4.76065 4.70498 4.31638L3.77846 3.94013C3.49826 4.63014 3.51337 5.37114 3.76551 6.01105L4.69589 5.64445ZM8.00683 3.65778L4.033 5.3685L4.42841 6.287L8.40225 4.57628L8.00683 3.65778ZM6.85522 3.37839C7.2696 3.55542 7.57832 3.89165 7.73935 4.30033L8.66973 3.93373C8.41749 3.29357 7.92496 2.74797 7.24808 2.4588L6.85522 3.37839ZM4.70498 4.31638C4.87443 3.89911 5.17916 3.58924 5.5384 3.41436L5.1007 2.51524C4.52256 2.79668 4.042 3.29118 3.77846 3.94013L4.70498 4.31638ZM5.5384 3.41436C5.94333 3.21723 6.41702 3.19119 6.85522 3.37839L7.24808 2.4588C6.52955 2.15183 5.7528 2.19778 5.1007 2.51524L5.5384 3.41436Z" fill="#1C274C"/>
</g>
<defs>
<clipPath id="clip0_5239_1476">
<rect width="15.7059" height="15.7059" fill="white" transform="scale(1.01873)"/>
</clipPath>
</defs>
</svg>
