<svg width="18" height="18" viewBox="0 0 18 18" fill="none" xmlns="http://www.w3.org/2000/svg">
<path d="M9 16.5C13.125 16.5 16.5 13.125 16.5 9C16.5 4.875 13.125 1.5 9 1.5C4.875 1.5 1.5 4.875 1.5 9C1.5 13.125 4.875 16.5 9 16.5Z" stroke="white" stroke-width="1.5" stroke-linecap="round" stroke-linejoin="round"/>
<path d="M8.36423 11.232V9.36005C9.06823 9.19205 9.60823 8.92805 9.98423 8.56805C10.3602 8.20805 10.5482 7.78005 10.5482 7.28405C10.5482 6.98005 10.4762 6.70805 10.3322 6.46805C10.1962 6.22005 10.0042 6.02805 9.75623 5.89205C9.50823 5.75605 9.22423 5.68805 8.90423 5.68805C8.62423 5.68805 8.36423 5.74405 8.12423 5.85605C7.88423 5.96005 7.67623 6.11605 7.50023 6.32405C7.33223 6.53205 7.20823 6.77605 7.12823 7.05605L6.24023 6.80405C6.34423 6.40405 6.52023 6.05205 6.76823 5.74805C7.02423 5.44405 7.33623 5.21205 7.70423 5.05205C8.07223 4.88405 8.47623 4.80005 8.91623 4.80005C9.30023 4.80005 9.65223 4.86405 9.97223 4.99205C10.3002 5.11205 10.5842 5.28405 10.8242 5.50805C11.0642 5.72405 11.2482 5.98005 11.3762 6.27605C11.5122 6.57205 11.5802 6.89205 11.5802 7.23605C11.5802 7.65205 11.4882 8.04005 11.3042 8.40005C11.1202 8.75205 10.8562 9.06005 10.5122 9.32405C10.1682 9.58805 9.76423 9.79205 9.30023 9.93605V11.232H8.36423ZM8.83223 13.536C8.70423 13.536 8.58823 13.504 8.48423 13.44C8.38023 13.376 8.29623 13.292 8.23223 13.188C8.16823 13.076 8.13623 12.96 8.13623 12.84C8.13623 12.72 8.16823 12.608 8.23223 12.504C8.29623 12.392 8.38023 12.304 8.48423 12.24C8.58823 12.176 8.70423 12.144 8.83223 12.144C8.96023 12.144 9.07623 12.176 9.18023 12.24C9.28423 12.304 9.36823 12.392 9.43223 12.504C9.49623 12.608 9.52823 12.72 9.52823 12.84C9.52823 12.96 9.49623 13.076 9.43223 13.188C9.36823 13.292 9.28423 13.376 9.18023 13.44C9.07623 13.504 8.96023 13.536 8.83223 13.536Z" fill="white" stroke="white" stroke-width="0.5"/>
</svg>
