<svg width="17" height="18" viewBox="0 0 17 18" fill="none" xmlns="http://www.w3.org/2000/svg">
<path d="M7.14017 5.92284C7.9028 4.47428 8.28412 3.75 8.85421 3.75C9.4243 3.75 9.80561 4.47428 10.5682 5.92284L10.7655 6.2976C10.9823 6.70923 11.0906 6.91505 11.2596 7.05085C11.4285 7.18665 11.6389 7.23706 12.0598 7.33788L12.4429 7.42967C13.9238 7.78445 14.6643 7.96185 14.8405 8.56168C15.0166 9.16151 14.5118 9.78653 13.5022 11.0366L13.241 11.36C12.9541 11.7152 12.8107 11.8928 12.7462 12.1125C12.6816 12.3323 12.7033 12.5692 12.7467 13.0432L12.7862 13.4747C12.9388 15.1425 13.0151 15.9764 12.5539 16.3471C12.0927 16.7179 11.3994 16.3799 10.0128 15.7039L9.65408 15.529C9.26006 15.3369 9.06304 15.2408 8.85421 15.2408C8.64537 15.2408 8.44836 15.3369 8.05433 15.529L7.6956 15.7039C6.30901 16.3799 5.61571 16.7179 5.15449 16.3471C4.69328 15.9764 4.7696 15.1425 4.92224 13.4747L4.96173 13.0432C5.0051 12.5692 5.02679 12.3323 4.96226 12.1125C4.89772 11.8928 4.75428 11.7152 4.46738 11.36L4.20618 11.0366C3.19658 9.78653 2.69178 9.16151 2.86795 8.56168C3.04411 7.96185 3.78458 7.78445 5.26551 7.42967L5.64865 7.33788C6.06948 7.23706 6.2799 7.18665 6.44885 7.05085C6.6178 6.91505 6.72616 6.70923 6.94287 6.2976L7.14017 5.92284Z" fill="#F9C36E"/>
<path d="M3.44775 1.87528C3.46899 1.79594 3.60199 1.79547 3.62374 1.87465C3.72305 2.23624 3.9072 2.7707 4.18566 3.06356C4.46412 3.35642 4.97013 3.54778 5.31229 3.65049C5.38722 3.67298 5.38766 3.81381 5.31288 3.83683C4.97138 3.94199 4.46661 4.13696 4.19003 4.43181C3.91344 4.72665 3.7327 5.26242 3.6357 5.62471C3.61446 5.70404 3.48146 5.70452 3.45971 5.62534C3.3604 5.26375 3.17625 4.72929 2.89779 4.43643C2.61932 4.14357 2.11332 3.95221 1.77116 3.8495C1.69623 3.82701 1.69578 3.68618 1.77057 3.66316C2.11206 3.558 2.61683 3.36302 2.89342 3.06818C3.17001 2.77333 3.35074 2.23757 3.44775 1.87528Z" fill="#F9C36E"/>
<path fill-rule="evenodd" clip-rule="evenodd" d="M13.4583 2.4375C13.7517 2.4375 13.9896 2.68934 13.9896 3V3.1875H14.1667C14.4601 3.1875 14.6979 3.43934 14.6979 3.75C14.6979 4.06066 14.4601 4.3125 14.1667 4.3125H13.9896V4.5C13.9896 4.81066 13.7517 5.0625 13.4583 5.0625C13.1649 5.0625 12.9271 4.81066 12.9271 4.5V4.3125H12.75C12.4566 4.3125 12.2188 4.06066 12.2188 3.75C12.2188 3.43934 12.4566 3.1875 12.75 3.1875H12.9271V3C12.9271 2.68934 13.1649 2.4375 13.4583 2.4375Z" fill="#F9C36E"/>
</svg>
